<svg width="19" height="19" viewBox="0 0 19 19" fill="none" xmlns="http://www.w3.org/2000/svg">
<path d="M9.50065 5.54165C9.93607 5.54165 10.2923 5.8979 10.2923 6.33331V9.49998C10.2923 9.9354 9.93607 10.2916 9.50065 10.2916C9.06524 10.2916 8.70899 9.9354 8.70899 9.49998V6.33331C8.70899 5.8979 9.06524 5.54165 9.50065 5.54165ZM9.49273 1.58331C5.12273 1.58331 1.58398 5.12998 1.58398 9.49998C1.58398 13.87 5.12273 17.4166 9.49273 17.4166C13.8707 17.4166 17.4173 13.87 17.4173 9.49998C17.4173 5.12998 13.8707 1.58331 9.49273 1.58331ZM9.50065 15.8333C6.00148 15.8333 3.16732 12.9991 3.16732 9.49998C3.16732 6.00081 6.00148 3.16665 9.50065 3.16665C12.9998 3.16665 15.834 6.00081 15.834 9.49998C15.834 12.9991 12.9998 15.8333 9.50065 15.8333ZM10.2923 13.4583H8.70899V11.875H10.2923V13.4583Z" fill="#F4512D"/>
</svg>
