<?xml version="1.0" encoding="utf-8"?>
<!-- Generator: Adobe Illustrator 17.0.0, SVG Export Plug-In . SVG Version: 6.00 Build 0)  -->
<!DOCTYPE svg PUBLIC "-//W3C//DTD SVG 1.1//EN" "http://www.w3.org/Graphics/SVG/1.1/DTD/svg11.dtd">
<svg version="1.1" id="Layer_1" xmlns="http://www.w3.org/2000/svg" xmlns:xlink="http://www.w3.org/1999/xlink" x="0px" y="0px"
	 width="270px" height="270px" viewBox="0 0 270 270" enable-background="new 0 0 270 270" xml:space="preserve">
<rect fill="#FFFFFF" stroke="#B9B9AF" stroke-width="0.5" stroke-miterlimit="10" width="270" height="270"/>
<path fill="#B9B9AF" d="M134.909,166.756c-17.511,0-31.758-14.246-31.758-31.757c0-17.51,14.247-31.756,31.758-31.756
	s31.758,14.246,31.758,31.756C166.667,152.511,152.419,166.756,134.909,166.756z M134.909,108.202
	c-14.778,0-26.8,12.021-26.8,26.798c0,14.777,12.022,26.799,26.8,26.799s26.8-12.021,26.8-26.799
	C161.708,120.223,149.687,108.202,134.909,108.202z"/>
<path fill="#B9B9AF" d="M134.909,152.12c-9.44,0-17.121-7.68-17.121-17.121c0-9.44,7.681-17.12,17.121-17.12
	s17.121,7.68,17.121,17.12C152.03,144.44,144.349,152.12,134.909,152.12z M134.909,120.855c-7.799,0-14.146,6.346-14.146,14.145
	c0,7.8,6.347,14.146,14.146,14.146c7.8,0,14.147-6.346,14.147-14.146C149.055,127.2,142.708,120.855,134.909,120.855z"/>
<path fill="#B9B9AF" d="M99.527,108.95c0-0.311-0.178-0.562-0.401-0.562H98.01h-1.057c-0.221,0-0.401,0.251-0.401,0.562
	l-0.265,14.588c-0.25,0.491-0.577,0.628-0.889,0.628c-0.122,0-0.238-0.062-0.36-0.117c-0.327-0.21-0.376-0.663-0.37-0.958h0.025
	l-0.004-0.258v-0.004l-0.203-13.88c0-0.311-0.18-0.562-0.401-0.562h-1.119h-1.058c-0.223,0-0.401,0.251-0.401,0.562l-0.263,14.588
	c-0.248,0.491-0.581,0.628-0.889,0.628c-0.31,0-0.639-0.137-0.887-0.628L89.2,108.95c0-0.311-0.18-0.562-0.401-0.562h-1.058h-1.116
	c-0.221,0-0.401,0.251-0.401,0.562l-0.211,14.142h0.07c-0.004,0.043-0.013,0.08-0.013,0.12c0,0.784,0.225,1.509,0.591,2.141h-0.025
	c0.846,1.895,2.467,3.336,4.445,3.898c-0.647,9.296-2.444,26.564-2.444,26.564l-0.301,5.016c0,0-0.003,1.16-0.003,1.205
	c0,2.561,2.071,4.639,4.633,4.648c2.557-0.01,4.631-2.088,4.631-4.648c0-0.044-0.012-1.315-0.012-1.315l-0.292-4.906
	c0,0-1.805-17.305-2.448-26.597c1.919-0.585,3.48-2.012,4.308-3.865h-0.06c0.368-0.632,0.593-1.357,0.593-2.141
	c0-0.04-0.012-0.077-0.015-0.12h0.07L99.527,108.95z M92.965,163.067c-0.335,0.004-0.692-0.145-0.963-0.678l0.899-18.819
	l0.064-0.031l0.062,0.031l0.899,18.819C93.656,162.922,93.3,163.071,92.965,163.067z"/>
<path fill="#B9B9AF" d="M183.496,162.244l-0.246-4.251l-1.286-14.539c-0.124-2.886-0.335-7.912-0.354-9.163l-0.139-9.478
	l0.031-0.436V107.73c0-0.115-0.076-0.217-0.19-0.247c-0.566-0.146-1.648-0.284-2.225-0.284c-2.775,0-5.322,1.692-6.49,4.31
	c-0.012,0.023-0.014,0.048-0.017,0.072c-0.353,0.64-0.542,1.322-0.558,2.118c-0.044,0.048-0.068,0.112-0.068,0.178l0.186,10.88
	l-0.186,12.658c0,0.045,0.023,0.087,0.054,0.126c0,0.749,0.192,1.478,0.567,2.161c0.004,0.029,0.01,0.054,0.021,0.081
	c0.695,1.555,1.9,2.826,3.322,3.517c0.014,0.014,1.445,1.646,1.195,3.978c-0.111,0.934-0.23,1.887-0.352,2.843l-1.524,10.768
	l-0.054,1.364c0,0.602,0.097,1.203,0.296,1.797c0.626,1.6,2.136,2.634,3.847,2.634c1.935,0,3.635-1.375,4.058-3.32
	c0.052-0.263,0.08-0.538,0.08-0.821l0,0c0.01-0.033,0.017-0.066,0.021-0.093C183.486,162.439,183.499,162.257,183.496,162.244z
	 M179.556,150.662c0-0.056,0.048-0.103,0.103-0.103l0.109,0.112l0.449,11.312c-0.011,0.068-0.008,0.149,0,0.196
	c0,0.486-0.395,0.879-0.879,0.879s-0.881-0.393-0.881-0.86L179.556,150.662z M178.675,137.91c0,0.916-0.748,1.662-1.664,1.662
	c-0.856,0-1.555-0.657-1.728-1.662l-0.014-12.224v-0.002v-9.717c-0.021-0.154-0.484-3.798,2.684-4.691
	c0.097-0.042,0.157-0.051,0.209-0.051c0.006,0,0.014,0,0.019,0c0.004,0,0.043,0.043,0.043,0.215v10.001L178.675,137.91z"/>
<path fill="#B9B9AF" d="M175.27,125.422v0.264c0.035,0.046,0.054,0.101,0.052,0.161L175.27,125.422z"/>
<path fill="#B9B9AF" d="M135,233c0.552,0,1,0.448,1,1s-0.448,1-1,1s-1-0.448-1-1S134.448,233,135,233z"/>
<path fill="#B9B9AF" d="M135,239c0.552,0,1,0.448,1,1s-0.448,1-1,1s-1-0.448-1-1S134.448,239,135,239z"/>
<path fill="#B9B9AF" d="M135,245c0.552,0,1,0.448,1,1s-0.448,1-1,1s-1-0.448-1-1S134.448,245,135,245z"/>
<path fill="#B9B9AF" d="M135,251c0.552,0,1,0.448,1,1s-0.448,1-1,1s-1-0.448-1-1S134.448,251,135,251z"/>
<path fill="#B9B9AF" d="M135,257c0.552,0,1,0.448,1,1s-0.448,1-1,1s-1-0.448-1-1S134.448,257,135,257z"/>
<path fill="#B9B9AF" d="M135,263c0.552,0,1,0.448,1,1s-0.448,1-1,1s-1-0.448-1-1S134.448,263,135,263z"/>
</svg>
