<?xml version="1.0" encoding="utf-8"?>
<!-- Generator: Adobe Illustrator 16.0.0, SVG Export Plug-In . SVG Version: 6.00 Build 0)  -->
<!DOCTYPE svg PUBLIC "-//W3C//DTD SVG 1.1//EN" "http://www.w3.org/Graphics/SVG/1.1/DTD/svg11.dtd">
<svg version="1.1" id="Layer_1" xmlns="http://www.w3.org/2000/svg" xmlns:xlink="http://www.w3.org/1999/xlink" x="0px" y="0px"
	 width="40px" height="40px" viewBox="0 0 40 40" enable-background="new 0 0 40 40" xml:space="preserve">
<g id="Apron">
	<g>
		<g>
			<path fill="#42413E" d="M37.489,21.532c-0.023-0.001-0.048-0.004-0.073-0.004C35.972,21.643,34.892,22.9,35,24.345
				c0,0.01,0.004,0.021,0.005,0.029c0.043,0.075,0.005,0.184,0.011,0.263c0.017,0.188-0.115,0.361-0.403,0.536l-0.383,0.013
				l-0.974,0.029v-6.898c0-0.409-0.232-0.775-0.667-0.99c-3.98-1.884-6.047-6.045-6.047-10.31l-0.014-0.087V1.698
				C26.526,1.313,26.213,1,25.829,1H22.93c-0.385,0-0.698,0.313-0.698,0.698v4.028c0,1.905-0.768,3.27-2.44,3.32
				c-1.688-0.05-2.363-1.415-2.363-3.32V1.698C17.429,1.313,17.116,1,16.731,1h-3.01c-0.385,0-0.698,0.313-0.698,0.698v4.788
				c-0.003,0-0.005,0.001-0.009,0.001v0.561c0,4.265-2.054,8.396-6.091,10.311c-0.376,0.182-0.61,0.548-0.61,0.958v6.891
				l-0.739-0.022l-0.383-0.013c-0.288-0.175-0.356-0.383-0.339-0.57c0.005-0.079-0.092-0.183-0.048-0.258
				c0.107-1.444-0.972-2.702-2.416-2.816c-0.025,0-0.049,0.003-0.073,0.004l0.003-0.044L0,21.446v2.095l2.425,0.073
				c0.288,0.175,0.356,0.383,0.339,0.571C2.76,24.24,2.8,24.396,2.812,24.513l0.001-0.021c-0.001,0.012,0.001,0.024,0,0.037
				c0-0.005-0.001-0.011-0.002-0.016l-0.006,0.124c0.009-0.017,0.01-0.046,0.009-0.079c-0.042,1.383,0.991,2.566,2.376,2.694
				l-0.035-0.001L5.382,27.3l0.933,0.017v11.589c0,0.592,0.482,1.072,1.073,1.072h24.794c0.592,0,1.073-0.48,1.073-1.072V27.321
				l1.167-0.021l0.081-0.044c0.023,0.001,0.048,0.004,0.074,0.003c1.443-0.113,2.523-1.371,2.416-2.815
				c-0.043-0.075,0.054-0.179,0.048-0.258c-0.018-0.188,0.051-0.396,0.339-0.571l2.425-0.073v-2.095L37.489,21.532z M31.11,37.834
				H8.459v-18.82c0-0.017,0.014-0.172,0.242-0.312c3.181-1.813,5.083-4.839,5.693-8.378c0.151-0.875,0.209-2.454,0.209-2.454V2.372
				l1.43,0.024v3.33c0,2.501,1.098,4.416,3.337,4.675c0.184,0.012,0.301,0.023,0.714-0.027c2.16-0.32,3.543-2.198,3.543-4.648v-3.33
				l1.46,0.017l-0.033,4.716v0.556l0.004,0.023c0.029,1.806,0.263,2.924,0.263,2.924c0.944,3.389,2.426,6.292,5.539,8.066
				c0.234,0.144,0.248,0.298,0.249,0.329V37.834z"/>
		</g>
	</g>
	<path fill="#F27242" d="M13.369,16.934h3.154l2.96,7.454l2.961-7.454h3.137V27.85h-2.355v-7.293l-2.933,7.293h-1.828l-2.916-7.249
		v7.249h-2.181V16.934z"/>
	<line fill="none" stroke="#42413E" stroke-width="2" stroke-miterlimit="10" x1="7" y1="31" x2="32" y2="31"/>
</g>
</svg>
