<?xml version="1.0" encoding="utf-8"?>
<!-- Generator: Adobe Illustrator 16.0.0, SVG Export Plug-In . SVG Version: 6.00 Build 0)  -->
<!DOCTYPE svg PUBLIC "-//W3C//DTD SVG 1.1//EN" "http://www.w3.org/Graphics/SVG/1.1/DTD/svg11.dtd">
<svg version="1.1" id="Layer_1" xmlns="http://www.w3.org/2000/svg" xmlns:xlink="http://www.w3.org/1999/xlink" x="0px" y="0px"
	 width="47.268px" height="40.65px" viewBox="0 0 47.268 40.65" enable-background="new 0 0 47.268 40.65" xml:space="preserve">
<g id="Oven">
	<path fill="#42413E" d="M44.799,2.468v35.715H2.467V2.468H44.799 M45.49-0.001H1.775c-0.98,0-1.776,0.797-1.776,1.777v37.098
		c0,0.98,0.795,1.777,1.776,1.777H45.49c0.981,0,1.777-0.797,1.777-1.777V1.776C47.268,0.796,46.472-0.001,45.49-0.001L45.49-0.001z
		"/>
	<polygon fill="#F27242" points="7.943,31.999 38.936,13.994 38.998,31.999 	"/>
	<path fill="#42413E" d="M37.92,33.919H9.347c-1.661,0-3.011-1.352-3.011-3.012V14.683c0-1.658,1.35-3.01,3.011-3.01H37.92
		c1.66,0,3.01,1.352,3.01,3.01v16.225C40.93,32.567,39.58,33.919,37.92,33.919z M9.347,14.142c-0.3,0-0.543,0.242-0.543,0.541
		v16.225c0,0.299,0.244,0.543,0.543,0.543H37.92c0.299,0,0.542-0.244,0.542-0.543V14.683c0-0.299-0.243-0.541-0.542-0.541H9.347z"/>
	<circle fill="#42413E" cx="8.913" cy="6.726" r="2.089"/>
	<circle fill="#42413E" cx="15.754" cy="6.726" r="2.089"/>
	<circle fill="#42413E" cx="30.006" cy="6.726" r="2.089"/>
	<circle fill="#42413E" cx="36.846" cy="6.726" r="2.089"/>
</g>
</svg>
