<?xml version="1.0" encoding="utf-8"?>
<!-- Generator: Adobe Illustrator 16.0.0, SVG Export Plug-In . SVG Version: 6.00 Build 0)  -->
<!DOCTYPE svg PUBLIC "-//W3C//DTD SVG 1.1//EN" "http://www.w3.org/Graphics/SVG/1.1/DTD/svg11.dtd">
<svg version="1.1" id="Bag" xmlns="http://www.w3.org/2000/svg" xmlns:xlink="http://www.w3.org/1999/xlink" x="0px" y="0px"
	 width="37px" height="28px" viewBox="0 0 37 28" enable-background="new 0 0 37 28" xml:space="preserve">
<path id="Back_Handle" fill="none" stroke="#42413E" stroke-miterlimit="10" d="M25.5,7V2.757c0,0-0.112-2.193-4.5-2.193
	c-4.388,0-4.5,2.193-4.5,2.193V7"/>
<g id="Bag_1_">
	<g id="Interior">
		<polygon fill="#F15122" points="34.213,5.5 29.825,8.79 3.501,8.79 7.889,5.5 		"/>
	</g>
	<path id="Frame" fill="none" stroke="#42413E" stroke-width="1.0968" stroke-miterlimit="10" d="M7.889,5.5h26.324v18.646
		l-4.388,3.29H3.501V8.79L7.889,5.5z M34.213,5.5L29.825,8.79v18.646 M29.825,8.79H3.501"/>
</g>
<path id="Front_Handle" fill="none" stroke="#42413E" stroke-miterlimit="10" d="M22.5,9V4.403c0,0-0.112-2.193-4.5-2.194
	c-4.388,0-4.5,2.194-4.5,2.194V9"/>
</svg>
