<?xml version="1.0" encoding="utf-8"?>
<!-- Generator: Adobe Illustrator 18.1.1, SVG Export Plug-In . SVG Version: 6.00 Build 0)  -->
<svg version="1.1" id="Layer_1" xmlns="http://www.w3.org/2000/svg" xmlns:xlink="http://www.w3.org/1999/xlink" x="0px" y="0px"
	 width="40px" height="386px" viewBox="0 0 40 386" enable-background="new 0 0 40 386" xml:space="preserve">
<path fill="#CC2127" d="M20,230.7c-11,0-20,9-20,20c0,11,9,20,20,20c11,0,20-9,20-20C40,239.6,31,230.7,20,230.7z M21.3,255.4
	c-1,0-2-0.6-2.4-1.2c0,0-0.6,2.3-0.7,2.7c-0.4,1.5-1.6,3.1-1.7,3.2c-0.1,0.1-0.2,0.1-0.2-0.1c0-0.2-0.3-2.1,0-3.7
	c0.2-0.8,1.2-5.3,1.2-5.3s-0.3-0.6-0.3-1.5c0-1.4,0.8-2.5,1.9-2.5c0.9,0,1.3,0.7,1.3,1.5c0,0.9-0.6,2.2-0.9,3.5
	c-0.2,1,0.5,1.9,1.5,1.9c1.8,0,3.1-2.4,3.1-5.2c0-2.1-1.4-3.7-4-3.7c-2.9,0-4.7,2.2-4.7,4.7c0,0.9,0.2,1.5,0.6,1.9
	c0.2,0.2,0.2,0.3,0.1,0.5c0,0.2-0.2,0.6-0.2,0.8c-0.1,0.2-0.3,0.3-0.5,0.2c-1.3-0.6-2-2.1-2-3.7c0-2.8,2.3-6.1,6.9-6.1
	c3.7,0,6.1,2.7,6.1,5.6C26.5,252.6,24.4,255.4,21.3,255.4z"/>
<g>
	<path fill="#3F729B" d="M24.3,366c0,2.4-1.9,4.3-4.3,4.3c-2.4,0-4.3-1.9-4.3-4.3c0-0.4,0.1-0.7,0.1-1.1h-1.2v5.9
		c0,0.3,0.2,0.5,0.5,0.5h9.7c0.3,0,0.5-0.2,0.5-0.5v-5.9h-1.2C24.2,365.3,24.3,365.6,24.3,366z"/>
	<circle fill="#3F729B" cx="20" cy="366" r="2.7"/>
	<path fill="#3F729B" d="M24.8,360.6h-1.6c-0.3,0-0.5,0.2-0.5,0.5v1.6c0,0.3,0.2,0.5,0.5,0.5h1.6c0.3,0,0.5-0.2,0.5-0.5v-1.6
		C25.4,360.9,25.1,360.6,24.8,360.6z"/>
	<path fill="#3F729B" d="M20,346c-11,0-20,9-20,20c0,11,9,20,20,20s20-9,20-20C40,354.9,31,346,20,346z M27,371.4
		c0,0.9-0.7,1.6-1.6,1.6H14.6c-0.9,0-1.6-0.7-1.6-1.6v-10.8c0-0.9,0.7-1.6,1.6-1.6h10.8c0.9,0,1.6,0.7,1.6,1.6V371.4z"/>
</g>
<path fill="#55ACEE" d="M20,115.3c-11,0-20,9-20,20c0,11,9,20,20,20c11,0,20-9,20-20C40,124.3,31,115.3,20,115.3z M27.4,133.1
	c0,0.1,0,0.3,0,0.4c0,4.3-3.3,9.3-9.3,9.3c-1.9,0-3.6-0.5-5-1.5c0.3,0,0.5,0,0.8,0c1.5,0,3-0.5,4.1-1.4c-1.4,0-2.6-1-3.1-2.3
	c0.2,0,0.4,0.1,0.6,0.1c0.3,0,0.6,0,0.9-0.1c-1.5-0.3-2.6-1.6-2.6-3.2c0,0,0,0,0,0c0.4,0.2,0.9,0.4,1.5,0.4
	c-0.9-0.6-1.5-1.6-1.5-2.7c0-0.6,0.2-1.2,0.4-1.7c1.6,2,4,3.3,6.8,3.4c-0.1-0.2-0.1-0.5-0.1-0.7c0-1.8,1.5-3.3,3.3-3.3
	c0.9,0,1.8,0.4,2.4,1c0.7-0.1,1.5-0.4,2.1-0.8c-0.2,0.8-0.8,1.4-1.4,1.8c0.7-0.1,1.3-0.3,1.9-0.5C28.6,132,28,132.6,27.4,133.1z"/>
<path fill="#3B5998" d="M20,0C9,0,0,9,0,20c0,11,9,20,20,20c11,0,20-9,20-20C40,9,31,0,20,0z M24,14.5c-0.7,0-1.6,0-1.9,0
	c-0.4,0-0.8,0.4-0.8,0.7c0,0.3,0,2,0,2s2.4,0,2.7,0c-0.1,1.5-0.3,2.9-0.3,2.9h-2.4v8.5h-3.6V20H16v-2.9h1.7c0,0,0-1.9,0-2.3
	c0-0.4-0.1-3.3,3.6-3.3c0.5,0,1.6,0,2.6,0C24,12.7,24,14.1,24,14.5z"/>
</svg>
