<svg width="113" height="113" viewBox="0 0 113 113" fill="none" xmlns="http://www.w3.org/2000/svg">
<path fill-rule="evenodd" clip-rule="evenodd" d="M56.5 112.372C87.3574 112.372 112.372 87.3574 112.372 56.5C112.372 25.6426 87.3574 0.627778 56.5 0.627778C25.6426 0.627778 0.627778 25.6426 0.627778 56.5C0.627778 87.3574 25.6426 112.372 56.5 112.372ZM56.5 113C87.7041 113 113 87.7041 113 56.5C113 25.2959 87.7041 0 56.5 0C25.2959 0 0 25.2959 0 56.5C0 87.7041 25.2959 113 56.5 113Z" fill="white"/>
<path fill-rule="evenodd" clip-rule="evenodd" d="M90.5279 54.6166L66.0198 32.4061L66.4414 31.9409L91.8092 54.9305L66.4414 77.92L66.0198 77.4548L90.5279 55.2444H14.439V54.6166H90.5279Z" fill="white"/>
</svg>
