<svg width="16" height="16" viewBox="0 0 16 16" fill="none" xmlns="http://www.w3.org/2000/svg">
<path d="M12.9477 2.20586C11.4179 0.677739 9.24996 -0.203511 6.86614 0.0402393C3.4218 0.387114 0.587498 3.18086 0.202708 6.62149C-0.313473 11.1684 3.20595 15.0027 7.64511 15.0027C10.639 15.0027 13.2105 13.2496 14.4118 10.7277C14.7121 10.0996 14.2616 9.37774 13.5671 9.37774C13.2199 9.37774 12.8914 9.56524 12.7412 9.87461C11.6807 12.1527 9.13734 13.5965 6.35934 12.9777C4.27585 12.5184 2.59591 10.8215 2.15481 8.74024C1.36646 5.10274 4.13507 1.87774 7.64511 1.87774C9.20303 1.87774 10.592 2.52461 11.6056 3.54649L10.1885 4.96211C9.59721 5.55274 10.0102 6.56524 10.8454 6.56524H14.2147C14.7309 6.56524 15.1532 6.14336 15.1532 5.62774V2.26211C15.1532 1.42774 14.1396 1.00586 13.5483 1.59649L12.9477 2.20586Z" fill="white"/>
</svg>
