<svg width="83" height="83" viewBox="0 0 83 83" fill="none" xmlns="http://www.w3.org/2000/svg">
<path fill-rule="evenodd" clip-rule="evenodd" d="M0.461111 41.5C0.46111 64.1651 18.8349 82.5389 41.5 82.5389C64.1651 82.5389 82.5389 64.1651 82.5389 41.5C82.5389 18.8348 64.1652 0.46111 41.5 0.461109C18.8349 0.461108 0.461112 18.8348 0.461111 41.5ZM-1.81402e-06 41.5C-2.81588e-06 64.4198 18.5802 83 41.5 83C64.4198 83 83 64.4198 83 41.5C83 18.5802 64.4198 -8.12166e-07 41.5 -1.81402e-06C18.5802 -2.81588e-06 -8.12166e-07 18.5802 -1.81402e-06 41.5Z" fill="white"/>
<path fill-rule="evenodd" clip-rule="evenodd" d="M42.8835 66.4938L59.1974 48.4923L59.5391 48.802L42.6529 67.4349L25.7668 48.802L26.1085 48.4923L42.4224 66.4938L42.4224 10.6055L42.8835 10.6055L42.8835 66.4938Z" fill="white"/>
</svg>
